<svg width="48" height="48" viewBox="0 0 48 48" fill="none" xmlns="http://www.w3.org/2000/svg">
  <defs>
    <linearGradient id="iconGradient" x1="0%" y1="0%" x2="100%" y2="100%">
      <stop offset="0%" style="stop-color:#0057B8;stop-opacity:1" />
      <stop offset="100%" style="stop-color:#C9A94A;stop-opacity:1" />
    </linearGradient>
  </defs>
  <rect width="48" height="48" rx="10" fill="url(#iconGradient)"/>
  <path d="M24 14C18.48 14 14 18.48 14 24C14 29.52 18.48 34 24 34C26.65 34 29.02 32.92 30.79 30.79L27.89 27.89C26.69 29.09 25.44 29.66 24 29.66C20.53 29.66 17.66 26.79 17.66 23.32C17.66 19.85 20.53 16.98 24 16.98C25.44 16.98 26.69 17.55 27.89 18.75L30.79 15.85C29.02 14.28 26.65 13.2 24 13.2V14ZM24 34C29.52 34 34 29.52 34 24C34 18.48 29.52 14 24 14V13.2C18.48 13.2 13.2 18.48 13.2 24C13.2 29.52 18.48 34 24 34Z" fill="white"/>
  <path d="M24 19V24H29V26H24V28H22V19H24Z" fill="white"/>
</svg>

