<svg width="200" height="48" viewBox="0 0 200 48" fill="none" xmlns="http://www.w3.org/2000/svg">
  <!-- Icon -->
  <g>
    <!-- G letter in a rounded square with gradient -->
    <defs>
      <linearGradient id="logoGradient" x1="0%" y1="0%" x2="100%" y2="100%">
        <stop offset="0%" style="stop-color:#0057B8;stop-opacity:1" />
        <stop offset="100%" style="stop-color:#C9A94A;stop-opacity:1" />
      </linearGradient>
    </defs>
    <rect x="0" y="0" width="40" height="40" rx="8" fill="url(#logoGradient)"/>
    <path d="M20 12C15.58 12 12 15.58 12 20C12 24.42 15.58 28 20 28C22.21 28 24.18 27.1 25.66 25.66L23.24 23.24C22.24 24.24 21.2 24.72 20 24.72C17.11 24.72 14.72 22.33 14.72 19.44C14.72 16.55 17.11 14.16 20 14.16C21.2 14.16 22.24 14.64 23.24 15.64L25.66 13.22C24.18 11.9 22.21 11 20 11V12ZM20 28C24.42 28 28 24.42 28 20C28 15.58 24.42 12 20 12V11C15.58 11 11 15.58 11 20C11 24.42 15.58 28 20 28Z" fill="white"/>
    <path d="M20 16V20H24V22H20V24H18V16H20Z" fill="white"/>
  </g>
  
  <!-- Text -->
  <text x="52" y="28" font-family="Inter, sans-serif" font-size="20" font-weight="700" fill="#1C1C1E">GulfHelper</text>
</svg>

